<?xml version="1.0" standalone="no"?>
<!DOCTYPE svg PUBLIC "-//W3C//DTD SVG 20010904//EN"
 "http://www.w3.org/TR/2001/REC-SVG-20010904/DTD/svg10.dtd">
<svg version="1.0" xmlns="http://www.w3.org/2000/svg"
 width="300.000000pt" height="300.000000pt" viewBox="0 0 300.000000 300.000000"
 preserveAspectRatio="xMidYMid meet">

<g transform="translate(0.000000,300.000000) scale(0.100000,-0.100000)"
fill="#000000" stroke="none">
<path d="M1307 2462 c-19 -31 -83 -138 -144 -237 -332 -544 -373 -614 -373
-638 0 -14 12 -39 26 -56 l26 -31 379 0 c208 0 379 -4 379 -8 0 -4 -4 -12 -9
-17 -12 -13 -261 -425 -256 -425 3 0 341 417 379 469 11 14 48 60 83 102 35
43 63 80 63 83 0 3 -164 6 -365 6 -238 0 -365 3 -365 10 0 6 31 60 69 122 65
105 68 113 54 134 -25 39 -19 96 18 158 28 46 38 56 58 54 20 -3 30 5 49 40
24 43 42 52 61 29 8 -10 4 -25 -18 -59 -28 -44 -29 -47 -12 -62 26 -24 34 -20
61 29 25 46 34 52 60 35 15 -9 14 -14 -34 -92 -8 -13 -6 -21 6 -30 16 -12 15
-17 -14 -67 -36 -61 -78 -91 -129 -91 -34 0 -40 -4 -78 -66 -22 -36 -41 -69
-41 -75 0 -5 146 -9 371 -9 306 0 370 -2 366 -13 -3 -8 -133 -172 -289 -366
-155 -194 -289 -362 -297 -374 -16 -23 -5 -14 334 308 424 403 475 455 475
491 0 90 -13 94 -340 94 l-271 0 16 28 c8 15 53 90 100 166 64 104 82 141 73
148 -7 4 -40 24 -73 43 -33 20 -87 52 -120 73 -33 21 -101 63 -152 94 l-92 56
-34 -56z"/>
<path d="M380 635 l0 -157 78 4 c75 3 77 4 77 28 0 23 -4 25 -47 28 -47 3 -48
4 -48 38 0 31 2 34 30 34 25 0 30 4 30 25 0 21 -5 25 -31 25 -29 0 -30 2 -27
38 3 37 3 37 48 37 41 0 45 2 45 25 0 24 -2 25 -77 28 l-78 4 0 -157z"/>
<path d="M645 778 c-2 -7 -12 -49 -21 -93 -8 -44 -22 -106 -29 -137 -7 -32
-13 -58 -12 -59 1 0 14 -2 29 -4 21 -3 27 1 32 21 9 35 61 35 70 0 5 -20 11
-24 34 -21 15 2 27 4 28 4 0 1 -14 67 -31 149 l-31 147 -32 3 c-20 2 -34 -2
-37 -10z m49 -155 c6 -39 4 -43 -15 -43 -19 0 -21 4 -15 38 3 20 6 44 6 52 0
29 18 -6 24 -47z"/>
<path d="M846 769 c-20 -16 -26 -29 -26 -60 0 -41 12 -59 73 -106 19 -15 27
-29 25 -44 -4 -32 -26 -35 -39 -5 -8 17 -20 26 -36 26 -34 0 -32 -51 3 -79 57
-45 134 -11 134 58 0 39 -13 57 -78 113 -34 28 -37 35 -23 57 12 19 41 6 41
-19 0 -16 7 -20 30 -20 25 0 30 4 30 25 0 35 -42 75 -78 75 -16 0 -41 -9 -56
-21z"/>
<path d="M1020 775 c0 -9 11 -48 25 -87 16 -47 25 -93 25 -135 l0 -63 30 0
c29 0 30 1 30 53 1 31 12 86 30 137 37 106 37 112 3 108 -24 -3 -29 -10 -43
-58 -17 -57 -20 -56 -35 16 -4 21 -14 34 -28 38 -33 9 -37 7 -37 -9z"/>
<path d="M1373 766 c-27 -24 -28 -26 -28 -131 1 -105 1 -108 28 -131 16 -13
41 -24 57 -24 35 0 78 36 82 70 2 21 -2 26 -24 28 -19 2 -28 -1 -28 -11 0 -8
-7 -21 -16 -28 -14 -11 -18 -10 -30 6 -19 25 -19 154 -1 180 15 19 37 13 37
-10 0 -16 17 -23 46 -17 50 9 -9 92 -67 92 -15 0 -41 -11 -56 -24z"/>
<path d="M1574 776 c-3 -7 -3 -75 -2 -151 l3 -140 25 0 c24 0 25 3 28 63 3 58
4 62 27 62 24 0 25 -3 25 -64 0 -65 0 -65 28 -62 l27 3 0 149 0 149 -25 0
c-23 0 -25 -4 -30 -60 -4 -52 -8 -60 -27 -63 -20 -3 -22 1 -25 60 -3 58 -5 63
-26 64 -13 1 -26 -4 -28 -10z"/>
<path d="M1846 782 c-6 -10 -58 -251 -60 -277 -2 -28 47 -28 54 0 4 14 16 21
37 23 26 3 32 -1 35 -20 2 -17 10 -23 31 -23 18 -1 27 4 27 14 0 30 -53 266
-63 279 -10 13 -53 17 -61 4z m47 -164 c5 -34 3 -38 -15 -38 -19 0 -20 4 -14
46 3 26 6 54 7 63 1 20 14 -22 22 -71z"/>
<path d="M2020 641 c0 -83 3 -151 8 -152 4 0 17 -2 30 -5 21 -4 22 -1 22 61 0
36 4 65 9 65 5 0 18 -28 28 -62 16 -56 22 -63 46 -66 32 -4 33 3 10 75 -16 50
-16 55 0 82 23 39 22 93 -3 121 -15 17 -33 23 -85 27 l-65 6 0 -152z m100 85
c18 -23 8 -61 -17 -64 -21 -3 -23 1 -23 37 0 43 17 54 40 27z"/>
<path d="M2266 767 c-25 -25 -26 -32 -26 -129 0 -119 10 -143 65 -154 70 -13
112 38 103 127 -3 32 -5 34 -45 37 -40 3 -43 1 -43 -22 0 -16 6 -26 15 -26 9
0 15 -9 15 -22 0 -33 -15 -52 -34 -45 -14 6 -16 21 -14 104 3 83 6 98 20 101
12 2 19 -5 24 -22 5 -21 12 -26 36 -26 29 0 30 2 24 32 -9 44 -25 58 -74 65
-34 5 -44 1 -66 -20z"/>
<path d="M2467 783 c-4 -3 -7 -73 -7 -155 l0 -149 68 2 c84 3 92 6 92 36 0 19
-5 24 -22 23 -69 -6 -78 -2 -78 35 0 32 2 35 30 35 25 0 30 4 30 25 0 21 -5
25 -30 25 -28 0 -30 3 -30 35 0 28 4 36 23 40 13 4 27 5 33 4 30 -5 44 3 44
26 0 24 -2 25 -73 25 -41 0 -77 -3 -80 -7z"/>
</g>
</svg>
